<svg xmlns="http://www.w3.org/2000/svg" xmlns:xlink="http://www.w3.org/1999/xlink" version="1.1" x="0px" y="0px" viewBox="0 0 1024 1280" style="enable-background:new 0 0 1024 1024;" xml:space="preserve"><g><path d="M231,563.6c-10.5-23.5-21.1-47-31.6-70.4c-1.5-3.4-3-6.8-4.5-10.1c-3.5-7.9-13.8-8.5-20.5-5.4   c-22.5,10.4-45,20.7-67.5,31.1c-0.4-0.9-0.8-1.7-1.1-2.5c-3.3-7.4-14.1-9.2-20.5-5.4c-7.6,4.4-8.7,13.1-5.4,20.5   c2.2,4.9,4.4,9.8,6.6,14.7c12.1,26.9,24.2,53.8,36.2,80.7c0.2,0.4,0.4,0.8,0.5,1.2c2,4.5,4.1,9.1,6.1,13.6   c3.3,7.4,14.1,9.2,20.5,5.4c7.6-4.4,8.7-13,5.4-20.4c20-9.2,39.9-18.4,59.9-27.6c2.8-1.3,5.5-2.5,8.3-3.8c0.7-0.3,1.4-0.7,2.1-1   C233.3,579.6,234.4,571,231,563.6z"/><path d="M818.2,371.6c-10.2-22.6-20.3-45.3-30.5-67.9c-16.1-35.9-32.2-71.7-48.3-107.6   c-3.7-8.3-7.4-16.5-11.1-24.8c-3.5-7.9-13.8-8.4-20.5-5.4c-24.6,11.1-49.2,22.2-73.8,33.2c-39.2,17.7-78.4,35.3-117.6,53   c-9,4-17.9,8.1-26.9,12.1c-7.9,3.6-8.4,13.8-5.4,20.5c1.8,3.9,3.5,7.8,5.3,11.8c-28,12.6-56,25.2-84.1,37.7   c-51.1,22.9-102.2,45.9-153.3,68.8c-11.7,5.3-23.4,10.5-35.2,15.8c-7.9,3.6-8.4,13.8-5.4,20.5c19.2,42.8,38.4,85.6,57.6,128.4   c2.7,6,5.4,12.1,8.2,18.2c3.5,7.9,13.8,8.4,20.5,5.4c21.7-9.8,43.4-19.5,65.2-29.3c33.7-15.1,67.4-30.3,101.1-45.4   c-2.8-4.2-5.2-8.5-7.3-13.1c-1.2-2.5-2.3-5.1-3.2-7.7c-0.8-2.1-1.5-4.2-2.1-6.3c-9.3-31.9-0.6-67,20.9-92.1   c12.7-14.9,30.1-25.2,48.9-30.2c5-1.3,10-2.3,15.1-2.8c5.4-0.6,10.8-0.8,16.1-0.5c9.6,0.5,19.1,2.5,28.2,5.9   c30.2,11.5,52.7,36.3,61.2,66.4c1.4,4.9,2.4,9.9,3,15c0.5,4.1,0.8,8.3,0.7,12.6c0,0.2,0,0.4,0,0.6c0,0.3,0,0.5,0,0.8v0   c0,0.7-0.1,1.4-0.1,2.1c14.2-6.4,28.3-12.8,42.5-19.1c33.8-15.3,67.7-30.5,101.5-45.8c7-3.2,14.1-6.3,21.1-9.5   c0.8-0.4,1.6-0.7,2.4-1.1C820.4,387.7,821.5,379,818.2,371.6z"/><path d="M942,339.9c-12.1-27-24.3-54.1-36.4-81.1c-19.3-42.9-38.5-85.8-57.8-128.7c-4.4-9.8-8.8-19.7-13.3-29.6   c-3.6-7.9-13.8-8.4-20.5-5.4c-18.3,8.2-36.6,16.4-54.9,24.7c-7.9,3.6-8.4,13.8-5.4,20.5c12.1,27,24.3,54.1,36.4,81.1   c19.3,42.9,38.5,85.8,57.8,128.7c4.4,9.8,8.8,19.7,13.3,29.5c3.6,7.9,13.8,8.4,20.5,5.4c17.5-7.9,35-15.7,52.5-23.6   c0.8-0.4,1.6-0.7,2.4-1.1C944,357.1,945.8,346.4,942,339.9z"/><path d="M851.8,900.3H739.6c-3.6-9.3-7.2-18.5-10.8-27.7c-12-31-24.1-62.1-36.1-93.1   c-14.6-37.7-29.3-75.4-43.9-113.1c-12.5-32.3-25.1-64.7-37.6-97c-3.1-8.1-6.3-16.3-9.4-24.4c-1.8-4.8-3.7-9.6-5.6-14.4   c-1.1-2.9-2.3-5.9-3.5-8.8c-0.1-0.2-0.2-0.4-0.3-0.6c-0.6-1.7-1.5-3.2-2.5-4.5c1.4-1.1,2.7-2.4,4.6-4.2c1.3-1.3,2.6-2.6,3.9-4   c0.7-0.8,1.4-1.6,2.1-2.4c0.1-0.1,0.8-1,1-1.2c0,0,0,0,0,0v0c2.3-3.2,4.4-6.6,6.3-10.1c0.9-1.6,1.7-3.3,2.4-4.9   c0-0.1,0-0.1,0.1-0.2c0,0,0,0,0,0c0,0,0,0,0,0c0-0.1,0.1-0.3,0.2-0.5c0.4-1,0.7-2,1.1-2.9c0.8-2.4,1.6-4.9,2.2-7.4   c0.4-1.6,0.7-3.2,1-4.7c0.1-0.5,0.2-0.9,0.3-1.4c0,0,0,0,0,0v0c0,0,0,0,0,0c0,0,0,0,0,0c0-0.4,0.2-1.3,0.2-1.4   c0.2-2.1,0.3-4.1,0.4-6.2v-0.1c0-3.3-0.1-6.5-0.4-9.6c-0.2-2.1-0.5-4.1-0.9-6.1c-0.8-4.2-2.2-8.5-4.1-13c-1.1-2.6-3.3-6.7-5.2-9.7   c-1.1-1.7-2.2-3.4-3.4-5c-0.1,0-2.1-2.7-2.6-3.1c-2.9-3.3-6-6.2-9.3-9c-0.2-0.2-0.4-0.4-0.5-0.5c0,0,0,0,0,0c0,0-0.2-0.1-0.3-0.3   c-0.6-0.4-1.2-0.8-1.7-1.2c-1.7-1.2-3.5-2.4-5.4-3.5c-1.8-1.1-3.7-2.1-5.6-3c-0.2-0.1-1.6-0.8-2.2-1c0,0-0.1,0-0.1,0c0,0,0,0,0,0   c-0.3-0.1-0.5-0.2-0.6-0.2c-3.1-1.2-6.2-2.2-9.4-3c-0.1,0-0.2,0-0.2-0.1c-0.8-0.2-1.7-0.4-2.5-0.6c-1.6-0.4-3.1-0.6-4.7-0.9   c0.2,0.1-3.1-0.4-3.9-0.4c-4.2-0.3-8.5-0.3-12.7,0.1c-1.9,0.2-4,0.5-6.2,0.9c-5.5,1.1-11.5,3-16.4,5.3c-3.3,1.6-6.6,3.5-9.6,5.5   c-0.6,0.4-2.9,2.1-3.1,2.2l0,0c-1,0.8-2,1.7-3,2.5c-2.7,2.4-5.2,4.9-7.5,7.6c-0.4,0.4-1.7,2.1-1.9,2.3c0,0,0,0,0,0c0,0,0,0,0,0   c-0.9,1.2-1.7,2.4-2.5,3.6c-1.9,2.9-3.7,6-5.2,9.2c-0.3,0.6-1.4,3.1-1.5,3.3c-0.4,1.1-0.9,2.3-1.3,3.4c-1.1,3.3-2,6.7-2.7,10.2   c-0.2,1.1-0.4,2.3-0.6,3.4c0.1-0.3-0.3,3.2-0.3,3.7c-0.2,3.5-0.2,7.1,0,10.7c0,0.5,0.2,2.2,0.3,3.1c0,0,0,0,0,0c0,0,0,0.1,0,0.2   c0.1,0.5,0.2,1.3,0.2,1.5c0.1,0.9,0.3,1.8,0.5,2.7c0.7,3.6,1.7,7.1,2.9,10.6c0.4,1.3,0.9,2.5,1.4,3.8c0,0,1.5,3.2,1.6,3.4   c2,4,4.3,7.7,7,11.1c3.4,4.5,7.3,8.5,11.6,11.9c-1.1,1.4-2,3-2.6,4.8c-1.2,3.2-2.5,6.3-3.7,9.5c-1.8,4.7-3.6,9.4-5.5,14.1   c-2,5-3.9,10.1-5.9,15.1c-12,31-24.1,62.1-36.1,93.1c-14.6,37.7-29.3,75.4-43.9,113.1c-12.5,32.4-25.1,64.7-37.6,97   c-4.8,12.4-10.2,24.7-14.8,37.2h-31c-24.4,0-48.8-0.6-73.2,0c-0.4,0-0.7,0-1.1,0c-7.8,0-15.4,6.9-15,15c0.4,8.1,6.6,15,15,15h529.7   c24.4,0,48.8,0.6,73.2,0h1.1c7.8,0,15.4-6.9,15-15C866.5,907.2,860.2,900.3,851.8,900.3z M385.6,900.3c2.6-6.6,5.1-13.2,7.7-19.8   c12-31,24.1-62.1,36.1-93.1c14.6-37.7,29.3-75.4,43.9-113.1c12.5-32.4,25.1-64.7,37.6-97c2.5-6.5,5.2-13,7.9-19.5   c1.9-4.7,3.8-9.3,5.6-14c1.8-4.7,3.5-9.4,5-14.1c0-0.1,0-0.1,0.1-0.2c11.1,2.9,22.9,3.1,34.4,0.1l5.5,14.1   c1.8,4.6,3.6,9.2,5.4,13.8c1.3,3.4,2.7,6.8,4,10.3c12,31,24.1,62.1,36.1,93.1c14.6,37.7,29.3,75.4,43.9,113.1   c12.6,32.4,25.1,64.7,37.6,97c3.8,9.8,7.5,19.5,11.3,29.3H385.6z"/></g><text x="0" y="1039" fill="#000000" font-size="5px" font-weight="bold" font-family="'Helvetica Neue', Helvetica, Arial-Unicode, Arial, Sans-serif">Created by shashank singh</text><text x="0" y="1044" fill="#000000" font-size="5px" font-weight="bold" font-family="'Helvetica Neue', Helvetica, Arial-Unicode, Arial, Sans-serif">from the Noun Project</text></svg>